STARTFONT 2.1
FONT -FontForge-White Rabbit-Book-R-Normal--60-580-75-75-P-336-ISO10646-1
SIZE 58 75 75
FONTBOUNDINGBOX 31 46 0 -6
COMMENT "Generated by fontforge, http://fontforge.sourceforge.net"
COMMENT "Copyright (c) 1999 by Matthew Welch. All Rights Reserved."
STARTPROPERTIES 40
FOUNDRY "FontForge"
FAMILY_NAME "White Rabbit"
WEIGHT_NAME "Book"
SLANT "R"
SETWIDTH_NAME "Normal"
ADD_STYLE_NAME ""
PIXEL_SIZE 60
POINT_SIZE 580
RESOLUTION_X 75
RESOLUTION_Y 75
SPACING "P"
AVERAGE_WIDTH 336
CHARSET_REGISTRY "ISO10646"
CHARSET_ENCODING "1"
FONTNAME_REGISTRY ""
CHARSET_COLLECTIONS "ISO10646-1"
FONT_NAME "WhiteRabbit"
FACE_NAME "White Rabbit"
COPYRIGHT "Copyright (c) 1999 by Matthew Welch. All Rights Reserved."
FONT_VERSION "1.00"
FONT_ASCENT 48
FONT_DESCENT 12
UNDERLINE_POSITION 0
UNDERLINE_THICKNESS 0
X_HEIGHT 28
CAP_HEIGHT 39
RAW_ASCENT 800
RAW_DESCENT 200
NORM_SPACE 34
RELATIVE_WEIGHT 40
RELATIVE_SETWIDTH 50
SUPERSCRIPT_X 0
SUPERSCRIPT_Y 0
SUPERSCRIPT_SIZE 0
SUBSCRIPT_X 0
SUBSCRIPT_Y 0
SUBSCRIPT_SIZE 0
FIGURE_WIDTH 34
AVG_LOWERCASE_WIDTH 340
AVG_UPPERCASE_WIDTH 340
ENDPROPERTIES
CHARS 101
STARTCHAR space
ENCODING 32
SWIDTH 571 0
DWIDTH 34 0
BBX 1 1 0 0
BITMAP
00
ENDCHAR
STARTCHAR exclam
ENCODING 33
SWIDTH 571 0
DWIDTH 34 0
BBX 11 40 9 0
BITMAP
7FC0
FFE0
FFE0
FFE0
FFE0
FFE0
FFE0
FFE0
FFE0
FFE0
FFE0
FFE0
FFE0
FFE0
FFE0
FFE0
FFE0
FFE0
FFE0
FFE0
FFE0
FFE0
7F80
0000
0000
0000
0000
0000
0000
FFC0
FFE0
FFE0
FFE0
FFE0
FFE0
FFE0
FFE0
FFE0
FFE0
7FC0
ENDCHAR
STARTCHAR quotedbl
ENCODING 34
SWIDTH 571 0
DWIDTH 34 0
BBX 17 11 9 29
BITMAP
700E00
F81F00
F81F80
F81F80
F81F80
F81F80
F81F80
F81F80
F81F80
F81F80
F00F00
ENDCHAR
STARTCHAR numbersign
ENCODING 35
SWIDTH 571 0
DWIDTH 34 0
BBX 28 40 3 0
BITMAP
01C03800
03E07C00
03E07E00
03E07E00
03E07E00
03E07E00
03E07E00
03E07E00
03E07E00
03E07E00
03E07E00
3FFFFFC0
7FFFFFF0
FFFFFFF0
FFFFFFF0
FFFFFFF0
7FFFFFE0
03E07E00
03E07E00
03E07E00
03E07E00
03E07E00
03E07E00
7FFFFFE0
FFFFFFF0
FFFFFFF0
FFFFFFF0
7FFFFFF0
3FFFFFC0
03E07E00
03E07E00
03E07E00
03E07E00
03E07E00
03E07E00
03E07E00
03E07E00
03E07E00
03E07C00
01C03800
ENDCHAR
STARTCHAR dollar
ENCODING 36
SWIDTH 571 0
DWIDTH 34 0
BBX 28 40 3 0
BITMAP
00070000
000F8000
001F8000
001F8000
001F8000
001F8000
07FFFFE0
1FFFFFF0
3FFFFFF0
7FFFFFF0
7FFFFFF0
FF1F8000
FC1F8000
FC1F8000
FC1F8000
FC1F8000
FE1F8000
FFFFFC00
7FFFFF00
3FFFFFC0
1FFFFFE0
0FFFFFE0
03FFFFF0
001F83F0
001F83F0
001F81F0
001F81F0
001F83F0
001F8FF0
7FFFFFE0
FFFFFFE0
FFFFFFC0
FFFFFF80
7FFFFE00
001F8000
001F8000
001F8000
001F8000
000F8000
00070000
ENDCHAR
STARTCHAR percent
ENCODING 37
SWIDTH 571 0
DWIDTH 34 0
BBX 28 40 3 0
BITMAP
7FC000E0
FFE001F0
FFE001F0
FFE001F0
FFE001F0
FFE001F0
FFE001F0
FFE001F0
FFE003F0
FFE007F0
7FC00FF0
00001FE0
00003FC0
00007F80
0000FF00
0001FE00
0003FC00
0007F800
000FF000
001FE000
003FC000
007F8000
00FF0000
01FE0000
03FC0000
07F80000
0FF00000
1FE00000
3FC00000
7F803FF0
FF007FF0
FE007FF0
FC007FF0
FC007FF0
FC007FF0
FC007FF0
FC007FF0
FC007FF0
F8007FF0
70003FE0
ENDCHAR
STARTCHAR ampersand
ENCODING 38
SWIDTH 571 0
DWIDTH 34 0
BBX 28 40 3 0
BITMAP
03E00000
0FF80000
3FFC0000
3FFE0000
7FFF0000
FFFF0000
FE3F8000
FC1F8000
FC1F8000
FC1F8000
FC1F8000
FC1F8000
FC1F8000
FC1F8000
FE3F8000
FF7F8000
7FFF0000
3FFE0000
1FFC0000
0FF80000
0FF80000
1FFC0000
3FFE0000
7FFF00E0
FF7F81F0
FE3FC3F0
FC1FE7F0
FC0FFFF0
FC07FFE0
FC03FFC0
FC01FF80
FC00FF00
FC01FF80
FC03FFC0
FFFFFFE0
7FFFFFF0
3FFFE7F0
3FFFC3F0
0FFF81F0
03FF00E0
ENDCHAR
STARTCHAR quotesingle
ENCODING 39
SWIDTH 571 0
DWIDTH 34 0
BBX 6 11 14 29
BITMAP
38
7C
FC
FC
FC
FC
FC
FC
FC
FC
78
ENDCHAR
STARTCHAR parenleft
ENCODING 40
SWIDTH 571 0
DWIDTH 34 0
BBX 12 40 14 0
BITMAP
03C0
0FE0
1FF0
3FF0
7FE0
7FC0
7E00
FC00
FC00
FC00
FC00
FC00
FC00
FC00
FC00
FC00
FC00
FC00
FC00
FC00
FC00
FC00
FC00
FC00
FC00
FC00
FC00
FC00
FC00
FC00
FC00
FC00
FC00
7E00
7FC0
7FE0
3FF0
1FF0
0FE0
03C0
ENDCHAR
STARTCHAR parenright
ENCODING 41
SWIDTH 571 0
DWIDTH 34 0
BBX 11 40 9 0
BITMAP
7800
FE00
FF00
FF80
FFC0
7FC0
0FE0
07E0
07E0
07E0
07E0
07E0
07E0
07E0
07E0
07E0
07E0
07E0
07E0
07E0
07E0
07E0
07E0
07E0
07E0
07E0
07E0
07E0
07E0
07E0
07E0
07E0
07E0
0FE0
7FC0
FFC0
FF80
FF00
FE00
7800
ENDCHAR
STARTCHAR asterisk
ENCODING 42
SWIDTH 571 0
DWIDTH 34 0
BBX 28 29 3 11
BITMAP
01C03800
03E03C00
03E07E00
03F07E00
03F0FC00
01F8FC00
01F9F800
00FDF000
00FFF000
007FE000
007FE000
3FFFFFC0
7FFFFFF0
FFFFFFF0
FFFFFFF0
FFFFFFF0
7FFFFFE0
003FE000
007FE000
007FF000
00FFF000
00FDF800
01F9F800
01F8FC00
03F0FC00
03F07E00
03E07E00
03E03C00
00801000
ENDCHAR
STARTCHAR plus
ENCODING 43
SWIDTH 571 0
DWIDTH 34 0
BBX 28 28 3 6
BITMAP
000F0000
001F8000
001F8000
001F8000
001F8000
001F8000
001F8000
001F8000
001F8000
001F8000
001F8000
7FFFFFE0
FFFFFFF0
FFFFFFF0
FFFFFFF0
FFFFFFF0
7FFFFFE0
001F8000
001F8000
001F8000
001F8000
001F8000
001F8000
001F8000
001F8000
001F8000
001F8000
000F0000
ENDCHAR
STARTCHAR comma
ENCODING 44
SWIDTH 571 0
DWIDTH 34 0
BBX 11 17 9 -6
BITMAP
FFC0
FFE0
FFE0
FFE0
FFE0
FFE0
FFE0
FFE0
FFE0
FFE0
FFC0
FF80
FF00
FE00
FC00
F800
7000
ENDCHAR
STARTCHAR hyphen
ENCODING 45
SWIDTH 571 0
DWIDTH 34 0
BBX 28 6 3 17
BITMAP
7FFFFFE0
FFFFFFF0
FFFFFFF0
FFFFFFF0
FFFFFFF0
7FFFFFE0
ENDCHAR
STARTCHAR period
ENCODING 46
SWIDTH 571 0
DWIDTH 34 0
BBX 11 11 9 0
BITMAP
FFC0
FFE0
FFE0
FFE0
FFE0
FFE0
FFE0
FFE0
FFE0
FFE0
7FC0
ENDCHAR
STARTCHAR slash
ENCODING 47
SWIDTH 571 0
DWIDTH 34 0
BBX 28 40 3 0
BITMAP
000000E0
000001F0
000001F0
000001F0
000001F0
000001F0
000001F0
000001F0
000003F0
000007F0
00000FF0
00001FE0
00003FC0
00007F80
0000FF00
0001FE00
0003FC00
0007F800
000FF000
001FE000
003FC000
007F8000
00FF0000
01FE0000
03FC0000
07F80000
0FF00000
1FE00000
3FC00000
7F800000
FF000000
FE000000
FC000000
FC000000
FC000000
FC000000
FC000000
FC000000
F8000000
70000000
ENDCHAR
STARTCHAR zero
ENCODING 48
SWIDTH 571 0
DWIDTH 34 0
BBX 28 40 3 0
BITMAP
03FFFE00
0FFFFF80
3FFFFFC0
3FFFFFE0
7FFFFFE0
FFFFFFF0
FE0003F0
FC0003F0
FC0001F0
FC0003F0
FC0007F0
FC001FF0
FC003FF0
FC007FF0
FC00FFF0
FC01FFF0
FC03FDF0
FC07F9F0
FC0FF1F0
FC1FE1F0
FC7FC1F0
FCFF81F0
FDFF01F0
FFFC01F0
FFF801F0
FFF001F0
FFE001F0
FFC001F0
FF8001F0
FF0001F0
FE0001F0
FC0001F0
FC0003F0
FC0003F0
FFFFFFF0
7FFFFFE0
3FFFFFE0
3FFFFFC0
0FFFFF80
03FFFE00
ENDCHAR
STARTCHAR one
ENCODING 49
SWIDTH 571 0
DWIDTH 34 0
BBX 17 40 9 0
BITMAP
01C000
07E000
0FE000
1FE000
3FE000
7FE000
FFE000
FFE000
FFE000
FFE000
F7E000
07E000
07E000
07E000
07E000
07E000
07E000
07E000
07E000
07E000
07E000
07E000
07E000
07E000
07E000
07E000
07E000
07E000
07E000
07E000
07E000
07E000
07E000
07E000
7FFE00
FFFF00
FFFF80
FFFF80
FFFF00
7FFE00
ENDCHAR
STARTCHAR two
ENCODING 50
SWIDTH 571 0
DWIDTH 34 0
BBX 28 40 3 0
BITMAP
03FFFE00
0FFFFF80
3FFFFFC0
3FFFFFE0
7FFFFFE0
FFFFFFF0
FE0003F0
FC0003F0
FC0001F0
F80001F0
780001F0
000001F0
000001F0
000003F0
000007F0
00000FF0
00001FE0
00003FC0
00007F80
0000FF00
0001FE00
0003FC00
0007F800
000FF000
001FE000
003FC000
007F8000
00FF0000
01FE0000
03FC0000
07F80000
0FF00000
1FE00000
3FC00000
7FFFFFE0
FFFFFFF0
FFFFFFF0
FFFFFFF0
FFFFFFF0
7FFFFFE0
ENDCHAR
STARTCHAR three
ENCODING 51
SWIDTH 571 0
DWIDTH 34 0
BBX 28 40 3 0
BITMAP
03FFFE00
0FFFFF80
3FFFFFC0
3FFFFFE0
7FFFFFE0
FFFFFFF0
FE0003F0
FC0003F0
FC0001F0
F80001F0
780001F0
000001F0
000001F0
000001F0
000001F0
000003F0
000003F0
0007FFF0
000FFFE0
001FFFE0
001FFFC0
000FFFE0
0007FFF0
000003F0
000003F0
000001F0
000001F0
000001F0
000001F0
780001F0
F80001F0
FC0001F0
FC0003F0
FC0003F0
FFFFFFF0
7FFFFFE0
3FFFFFE0
3FFFFFC0
0FFFFF80
03FFFE00
ENDCHAR
STARTCHAR four
ENCODING 52
SWIDTH 571 0
DWIDTH 34 0
BBX 28 40 3 0
BITMAP
00003800
00007C00
00007E00
00007E00
00007E00
00007E00
78007E00
F8007E00
FC007E00
FC007E00
FC007E00
FC007E00
FC007E00
FC007E00
FC007E00
FC007E00
FC007E00
FC007E00
FC007E00
FC007E00
FC007E00
FC007E00
FC007E00
FFFFFFE0
FFFFFFF0
FFFFFFF0
FFFFFFF0
7FFFFFF0
3FFFFFC0
00007E00
00007E00
00007E00
00007E00
00007E00
00007E00
00007E00
00007E00
00007E00
00007C00
00003800
ENDCHAR
STARTCHAR five
ENCODING 53
SWIDTH 571 0
DWIDTH 34 0
BBX 28 40 3 0
BITMAP
7FFFFFE0
FFFFFFF0
FFFFFFF0
FFFFFFF0
FFFFFFF0
FFFFFFE0
FC000000
FC000000
FC000000
FC000000
FC000000
FC000000
FC000000
FC000000
FC000000
FC000000
FC000000
FFFFFC00
FFFFFF00
FFFFFFC0
FFFFFFE0
FFFFFFE0
7FFFFFF0
000003F0
000003F0
000001F0
000001F0
000001F0
000001F0
000001F0
000001F0
000001F0
000003F0
000003F0
3FFFFFF0
FFFFFFE0
FFFFFFE0
FFFFFFC0
FFFFFF80
7FFFFE00
ENDCHAR
STARTCHAR six
ENCODING 54
SWIDTH 571 0
DWIDTH 34 0
BBX 28 40 3 0
BITMAP
03FFF800
0FFFFC00
3FFFFE00
3FFFFE00
7FFFFC00
FFFFF800
FE000000
FC000000
FC000000
FC000000
FC000000
FC000000
FC000000
FC000000
FC000000
FC000000
FC000000
FFFFFC00
FFFFFF80
FFFFFFC0
FFFFFFE0
FFFFFFE0
FFFFFFF0
FC0003F0
FC0003F0
FC0001F0
FC0001F0
FC0001F0
FC0001F0
FC0001F0
FC0001F0
FC0001F0
FC0003F0
FC0003F0
FFFFFFF0
7FFFFFE0
3FFFFFE0
3FFFFFC0
0FFFFF80
03FFFE00
ENDCHAR
STARTCHAR seven
ENCODING 55
SWIDTH 571 0
DWIDTH 34 0
BBX 28 40 3 0
BITMAP
7FFFFFE0
FFFFFFF0
FFFFFFF0
FFFFFFF0
FFFFFFF0
3FFFFFF0
000001F0
000001F0
000001F0
000001F0
000001F0
000001F0
000001F0
000003F0
000007F0
00000FF0
00001FE0
00003FC0
00007F80
0000FF00
0001FE00
0003FC00
0007F800
000FF000
001FE000
003FC000
007F8000
00FF0000
01FE0000
03FC0000
07F80000
0FF00000
1FE00000
3FC00000
7F800000
FF000000
FE000000
FC000000
F8000000
70000000
ENDCHAR
STARTCHAR eight
ENCODING 56
SWIDTH 571 0
DWIDTH 34 0
BBX 28 40 3 0
BITMAP
03FFFE00
0FFFFF80
3FFFFFC0
3FFFFFE0
7FFFFFE0
FFFFFFF0
FE0003F0
FC0003F0
FC0001F0
FC0001F0
FC0001F0
FC0001F0
FC0001F0
FC0001F0
FC0001F0
FC0003F0
FE0003F0
7FFFFFF0
7FFFFFE0
3FFFFFE0
3FFFFFC0
7FFFFFE0
FFFFFFF0
FE0003F0
FC0003F0
FC0001F0
FC0001F0
FC0001F0
FC0001F0
FC0001F0
FC0001F0
FC0001F0
FC0003F0
FC0003F0
FFFFFFF0
7FFFFFE0
3FFFFFE0
3FFFFFC0
0FFFFF80
03FFFE00
ENDCHAR
STARTCHAR nine
ENCODING 57
SWIDTH 571 0
DWIDTH 34 0
BBX 28 40 3 0
BITMAP
03FFFE00
0FFFFF80
3FFFFFC0
3FFFFFE0
7FFFFFE0
FFFFFFF0
FE0003F0
FC0003F0
FC0001F0
FC0001F0
FC0001F0
FC0001F0
FC0001F0
FC0001F0
FC0001F0
FC0001F0
FE0001F0
FFFFFFF0
7FFFFFF0
7FFFFFF0
3FFFFFF0
0FFFFFF0
03FFFFF0
000001F0
000001F0
000001F0
000001F0
000001F0
000001F0
000001F0
000001F0
000001F0
000003F0
000003F0
3FFFFFF0
FFFFFFE0
FFFFFFE0
FFFFFFC0
FFFFFF80
7FFFFE00
ENDCHAR
STARTCHAR colon
ENCODING 58
SWIDTH 571 0
DWIDTH 34 0
BBX 11 34 9 0
BITMAP
7FC0
FFE0
FFE0
FFE0
FFE0
FFE0
FFE0
FFE0
FFE0
FFE0
7FC0
0000
0000
0000
0000
0000
0000
0000
0000
0000
0000
0000
0000
FFC0
FFE0
FFE0
FFE0
FFE0
FFE0
FFE0
FFE0
FFE0
FFE0
7FC0
ENDCHAR
STARTCHAR semicolon
ENCODING 59
SWIDTH 571 0
DWIDTH 34 0
BBX 11 40 9 -6
BITMAP
7FC0
FFE0
FFE0
FFE0
FFE0
FFE0
FFE0
FFE0
FFE0
FFE0
7FC0
0000
0000
0000
0000
0000
0000
0000
0000
0000
0000
0000
0000
FFC0
FFE0
FFE0
FFE0
FFE0
FFE0
FFE0
FFE0
FFE0
FFE0
FFC0
FF80
FF00
FE00
FC00
F800
7000
ENDCHAR
STARTCHAR less
ENCODING 60
SWIDTH 571 0
DWIDTH 34 0
BBX 23 40 3 0
BITMAP
000038
00007C
0000FE
0001FE
0003FC
0007F8
000FF0
001FE0
003FC0
007F80
00FF00
01FE00
03FC00
07F800
0FF000
1FE000
3FC000
7F8000
FF0000
FE0000
FE0000
FF0000
7F8000
3FC000
1FE000
0FF000
07F800
03FC00
01FE00
00FF00
007F80
003FC0
001FE0
000FF0
0007F8
0003FC
0001FE
0000FE
00007C
000038
ENDCHAR
STARTCHAR equal
ENCODING 61
SWIDTH 571 0
DWIDTH 34 0
BBX 28 18 3 11
BITMAP
3FFFFFC0
7FFFFFF0
FFFFFFF0
FFFFFFF0
FFFFFFF0
7FFFFFE0
00000000
00000000
00000000
00000000
00000000
00000000
7FFFFFE0
FFFFFFF0
FFFFFFF0
FFFFFFF0
7FFFFFF0
3FFFFFC0
ENDCHAR
STARTCHAR greater
ENCODING 62
SWIDTH 571 0
DWIDTH 34 0
BBX 22 40 9 0
BITMAP
700000
F80000
FC0000
FE0000
FF0000
7F8000
3FC000
1FE000
0FF000
07F800
03FC00
01FE00
00FF00
007F80
003FC0
001FE0
000FF0
0007F8
0003FC
0001FC
0001FC
0003FC
0007F8
000FF0
001FE0
003FC0
007F80
00FF00
01FE00
03FC00
07F800
0FF000
1FE000
3FC000
7F8000
FF0000
FE0000
FC0000
F80000
700000
ENDCHAR
STARTCHAR question
ENCODING 63
SWIDTH 571 0
DWIDTH 34 0
BBX 28 40 3 0
BITMAP
03FFFE00
0FFFFF80
3FFFFFC0
3FFFFFE0
7FFFFFE0
FFFFFFF0
FE0003F0
FC0003F0
FC0001F0
F80001F0
780001F0
000001F0
000001F0
000003F0
000007F0
00000FF0
00001FE0
00003FC0
00007F80
0000FF00
0001FE00
0003FC00
0007F800
000FF000
000FE000
001FC000
001F8000
000F0000
00020000
00000000
00000000
00000000
00000000
00000000
00060000
000F0000
001F8000
001F8000
000F8000
00070000
ENDCHAR
STARTCHAR at
ENCODING 64
SWIDTH 571 0
DWIDTH 34 0
BBX 28 40 3 0
BITMAP
03FFFE00
0FFFFF80
3FFFFFC0
3FFFFFE0
7FFFFFE0
FFFFFFF0
FE0003F0
FC0003F0
FC0001F0
FC0001F0
FC0001F0
FC001FF0
FC00FFF0
FC03FFF0
FC07FFF0
FC07FFF0
FC0FFFF0
FC0FE7F0
FC1F83F0
FC1F81F0
FC1F81F0
FC1F83F0
FC0FE7F0
FC0FFFF0
FC07FFE0
FC07FFC0
FC03FF80
FC00FF00
FC001800
FC000000
FC000000
FC000000
FC000000
FC000000
FFFFFFE0
7FFFFFF0
3FFFFFF0
3FFFFFF0
0FFFFFF0
03FFFFE0
ENDCHAR
STARTCHAR A
ENCODING 65
SWIDTH 571 0
DWIDTH 34 0
BBX 28 40 3 0
BITMAP
03FFFE00
0FFFFF80
3FFFFFC0
3FFFFFE0
7FFFFFE0
FFFFFFF0
FE0003F0
FC0003F0
FC0001F0
FC0001F0
FC0001F0
FC0001F0
FC0001F0
FC0001F0
FC0001F0
FC0001F0
FC0001F0
FFFFFFF0
FFFFFFF0
FFFFFFF0
FFFFFFF0
FFFFFFF0
FFFFFFF0
FC0001F0
FC0001F0
FC0001F0
FC0001F0
FC0001F0
FC0001F0
FC0001F0
FC0001F0
FC0001F0
FC0001F0
FC0001F0
FC0001F0
FC0001F0
FC0001F0
FC0001F0
F80001F0
700000E0
ENDCHAR
STARTCHAR B
ENCODING 66
SWIDTH 571 0
DWIDTH 34 0
BBX 28 40 3 0
BITMAP
7FFFFE00
FFFFFF80
FFFFFFC0
FFFFFFE0
FFFFFFE0
FFFFFFF0
FC0003F0
FC0003F0
FC0001F0
FC0001F0
FC0001F0
FC0001F0
FC0001F0
FC0001F0
FC0001F0
FC0003F0
FC0003F0
FFFFFFF0
FFFFFFE0
FFFFFFE0
FFFFFFC0
FFFFFFE0
FFFFFFF0
FC0003F0
FC0003F0
FC0001F0
FC0001F0
FC0001F0
FC0001F0
FC0001F0
FC0001F0
FC0001F0
FC0003F0
FC0003F0
FFFFFFF0
FFFFFFE0
FFFFFFE0
FFFFFFC0
FFFFFF80
7FFFFE00
ENDCHAR
STARTCHAR C
ENCODING 67
SWIDTH 571 0
DWIDTH 34 0
BBX 28 40 3 0
BITMAP
03FFFE00
0FFFFF80
3FFFFFC0
3FFFFFE0
7FFFFFE0
FFFFFFF0
FE0003F0
FC0003F0
FC0001F0
FC0001F0
FC0001F0
FC000000
FC000000
FC000000
FC000000
FC000000
FC000000
FC000000
FC000000
FC000000
FC000000
FC000000
FC000000
FC000000
FC000000
FC000000
FC000000
FC000000
FC000000
FC0001F0
FC0001F0
FC0001F0
FC0003F0
FC0003F0
FFFFFFF0
7FFFFFE0
3FFFFFE0
3FFFFFC0
0FFFFF80
03FFFE00
ENDCHAR
STARTCHAR D
ENCODING 68
SWIDTH 571 0
DWIDTH 34 0
BBX 28 40 3 0
BITMAP
7FFFFE00
FFFFFF80
FFFFFFC0
FFFFFFE0
FFFFFFE0
FFFFFFF0
FC0003F0
FC0003F0
FC0001F0
FC0001F0
FC0001F0
FC0001F0
FC0001F0
FC0001F0
FC0001F0
FC0001F0
FC0001F0
FC0001F0
FC0001F0
FC0001F0
FC0001F0
FC0001F0
FC0001F0
FC0001F0
FC0001F0
FC0001F0
FC0001F0
FC0001F0
FC0001F0
FC0001F0
FC0001F0
FC0001F0
FC0003F0
FC0003F0
FFFFFFF0
FFFFFFE0
FFFFFFE0
FFFFFFC0
FFFFFF80
7FFFFE00
ENDCHAR
STARTCHAR E
ENCODING 69
SWIDTH 571 0
DWIDTH 34 0
BBX 28 40 3 0
BITMAP
7FFFFFE0
FFFFFFF0
FFFFFFF0
FFFFFFF0
FFFFFFF0
FFFFFFE0
FC000000
FC000000
FC000000
FC000000
FC000000
FC000000
FC000000
FC000000
FC000000
FC000000
FC000000
FFFFF800
FFFFFC00
FFFFFE00
FFFFFE00
FFFFFC00
FFFFF800
FC000000
FC000000
FC000000
FC000000
FC000000
FC000000
FC000000
FC000000
FC000000
FC000000
FC000000
FFFFFFE0
FFFFFFF0
FFFFFFF0
FFFFFFF0
FFFFFFF0
7FFFFFE0
ENDCHAR
STARTCHAR F
ENCODING 70
SWIDTH 571 0
DWIDTH 34 0
BBX 28 40 3 0
BITMAP
7FFFFFE0
FFFFFFF0
FFFFFFF0
FFFFFFF0
FFFFFFF0
FFFFFFE0
FC000000
FC000000
FC000000
FC000000
FC000000
FC000000
FC000000
FC000000
FC000000
FC000000
FC000000
FFFFF800
FFFFFC00
FFFFFE00
FFFFFE00
FFFFFC00
FFFFF800
FC000000
FC000000
FC000000
FC000000
FC000000
FC000000
FC000000
FC000000
FC000000
FC000000
FC000000
FC000000
FC000000
F8000000
F8000000
F8000000
70000000
ENDCHAR
STARTCHAR G
ENCODING 71
SWIDTH 571 0
DWIDTH 34 0
BBX 28 40 3 0
BITMAP
03FFFE00
0FFFFF80
3FFFFFC0
3FFFFFE0
7FFFFFE0
FFFFFFF0
FE0003F0
FC0003F0
FC0001F0
FC0001F0
FC0001F0
FC000000
FC000000
FC000000
FC000000
FC000000
FC000000
FC001FE0
FC007FF0
FC007FF0
FC007FF0
FC007FF0
FC003FF0
FC0001F0
FC0001F0
FC0001F0
FC0001F0
FC0001F0
FC0001F0
FC0001F0
FC0001F0
FC0001F0
FC0003F0
FC0003F0
FFFFFFF0
7FFFFFE0
3FFFFFE0
3FFFFFC0
0FFFFF80
03FFFE00
ENDCHAR
STARTCHAR H
ENCODING 72
SWIDTH 571 0
DWIDTH 34 0
BBX 28 40 3 0
BITMAP
700000E0
F80001F0
FC0001F0
FC0001F0
FC0001F0
FC0001F0
FC0001F0
FC0001F0
FC0001F0
FC0001F0
FC0001F0
FC0001F0
FC0001F0
FC0001F0
FC0001F0
FC0001F0
FC0001F0
FFFFFFF0
FFFFFFF0
FFFFFFF0
FFFFFFF0
FFFFFFF0
FFFFFFF0
FC0001F0
FC0001F0
FC0001F0
FC0001F0
FC0001F0
FC0001F0
FC0001F0
FC0001F0
FC0001F0
FC0001F0
FC0001F0
FC0001F0
FC0001F0
FC0001F0
FC0001F0
F80001F0
700000E0
ENDCHAR
STARTCHAR I
ENCODING 73
SWIDTH 571 0
DWIDTH 34 0
BBX 17 40 9 0
BITMAP
7FFE00
FFFF00
FFFF80
FFFF80
FFFF00
7FFE00
07E000
07E000
07E000
07E000
07E000
07E000
07E000
07E000
07E000
07E000
07E000
07E000
07E000
07E000
07E000
07E000
07E000
07E000
07E000
07E000
07E000
07E000
07E000
07E000
07E000
07E000
07E000
07E000
7FFE00
FFFF00
FFFF80
FFFF80
FFFF00
7FFE00
ENDCHAR
STARTCHAR J
ENCODING 74
SWIDTH 571 0
DWIDTH 34 0
BBX 28 40 3 0
BITMAP
000000E0
000001F0
000001F0
000001F0
000001F0
000001F0
000001F0
000001F0
000001F0
000001F0
000001F0
000001F0
000001F0
000001F0
000001F0
000001F0
000001F0
000001F0
000001F0
000001F0
000001F0
000001F0
000001F0
000001F0
000001F0
000001F0
000001F0
000001F0
000001F0
780001F0
F80001F0
FC0001F0
FC0003F0
FC0003F0
FFFFFFF0
7FFFFFE0
3FFFFFE0
3FFFFFC0
0FFFFF80
03FFFE00
ENDCHAR
STARTCHAR K
ENCODING 75
SWIDTH 571 0
DWIDTH 34 0
BBX 28 40 3 0
BITMAP
700000E0
F80001F0
FC0003F0
FC0007F0
FC000FF0
FC001FE0
FC003FC0
FC007F80
FC00FF00
FC01FE00
FC03FC00
FC07F800
FC0FF000
FC1FE000
FC3FC000
FC7F8000
FCFF0000
FDFE0000
FFFC0000
FFF80000
FFF80000
FFFC0000
FFFE0000
FFFF0000
FF7F8000
FE3FC000
FC1FE000
FC0FF000
FC07F800
FC03FC00
FC01FE00
FC00FF00
FC007F80
FC003FC0
FC001FE0
FC000FF0
FC0007F0
FC0003F0
F80001F0
700000E0
ENDCHAR
STARTCHAR L
ENCODING 76
SWIDTH 571 0
DWIDTH 34 0
BBX 28 40 3 0
BITMAP
70000000
F8000000
FC000000
FC000000
FC000000
FC000000
FC000000
FC000000
FC000000
FC000000
FC000000
FC000000
FC000000
FC000000
FC000000
FC000000
FC000000
FC000000
FC000000
FC000000
FC000000
FC000000
FC000000
FC000000
FC000000
FC000000
FC000000
FC000000
FC000000
FC000000
FC000000
FC000000
FC000000
FC000000
FFFFFFE0
FFFFFFF0
FFFFFFF0
FFFFFFF0
FFFFFFF0
7FFFFFE0
ENDCHAR
STARTCHAR M
ENCODING 77
SWIDTH 571 0
DWIDTH 34 0
BBX 28 40 3 0
BITMAP
700000E0
F80001F0
FC0003F0
FE0007F0
FF000FF0
FF801FF0
FFC03FF0
FFE07FF0
FFF0FFF0
FFF9FFF0
FFFFFDF0
FDFFF9F0
FCFFF1F0
FC7FE1F0
FC3FC1F0
FC1F81F0
FC0F01F0
FC0001F0
FC0001F0
FC0001F0
FC0001F0
FC0001F0
FC0001F0
FC0001F0
FC0001F0
FC0001F0
FC0001F0
FC0001F0
FC0001F0
FC0001F0
FC0001F0
FC0001F0
FC0001F0
FC0001F0
FC0001F0
FC0001F0
FC0001F0
FC0001F0
F80001F0
700000E0
ENDCHAR
STARTCHAR N
ENCODING 78
SWIDTH 571 0
DWIDTH 34 0
BBX 28 40 3 0
BITMAP
700000E0
F80001F0
FC0001F0
FE0001F0
FF0001F0
FF8001F0
FFC001F0
FFE001F0
FFF001F0
FFF801F0
FFFC01F0
FDFE01F0
FCFF01F0
FC7F81F0
FC3FC1F0
FC1FE1F0
FC0FF1F0
FC07F9F0
FC03FDF0
FC01FFF0
FC00FFF0
FC007FF0
FC003FF0
FC001FF0
FC000FF0
FC0007F0
FC0003F0
FC0001F0
FC0001F0
FC0001F0
FC0001F0
FC0001F0
FC0001F0
FC0001F0
FC0001F0
FC0001F0
FC0001F0
FC0001F0
F80001F0
700000E0
ENDCHAR
STARTCHAR O
ENCODING 79
SWIDTH 571 0
DWIDTH 34 0
BBX 28 40 3 0
BITMAP
03FFFE00
0FFFFF80
3FFFFFC0
3FFFFFE0
7FFFFFE0
FFFFFFF0
FE0003F0
FC0003F0
FC0001F0
FC0001F0
FC0001F0
FC0001F0
FC0001F0
FC0001F0
FC0001F0
FC0001F0
FC0001F0
FC0001F0
FC0001F0
FC0001F0
FC0001F0
FC0001F0
FC0001F0
FC0001F0
FC0001F0
FC0001F0
FC0001F0
FC0001F0
FC0001F0
FC0001F0
FC0001F0
FC0001F0
FC0003F0
FC0003F0
FFFFFFF0
7FFFFFE0
3FFFFFE0
3FFFFFC0
0FFFFF80
03FFFE00
ENDCHAR
STARTCHAR P
ENCODING 80
SWIDTH 571 0
DWIDTH 34 0
BBX 28 40 3 0
BITMAP
7FFFFE00
FFFFFF80
FFFFFFC0
FFFFFFE0
FFFFFFE0
FFFFFFF0
FC0003F0
FC0003F0
FC0001F0
FC0001F0
FC0001F0
FC0001F0
FC0001F0
FC0001F0
FC0001F0
FC0003F0
FC0003F0
FFFFFFF0
FFFFFFE0
FFFFFFE0
FFFFFFC0
FFFFFF00
FFFFFC00
FC000000
FC000000
FC000000
FC000000
FC000000
FC000000
FC000000
FC000000
FC000000
FC000000
FC000000
FC000000
FC000000
FC000000
FC000000
F8000000
70000000
ENDCHAR
STARTCHAR Q
ENCODING 81
SWIDTH 571 0
DWIDTH 34 0
BBX 28 40 3 0
BITMAP
03FFFE00
0FFFFF80
3FFFFFC0
3FFFFFE0
7FFFFFE0
FFFFFFF0
FE0003F0
FC0003F0
FC0001F0
FC0001F0
FC0001F0
FC0001F0
FC0001F0
FC0001F0
FC0001F0
FC0001F0
FC0001F0
FC0001F0
FC0001F0
FC0001F0
FC0001F0
FC0001F0
FC0001F0
FC0F03F0
FC0F87F0
FC1FCFF0
FC1FFFF0
FC0FFFF0
FC07FFE0
FC03FFC0
FC01FF80
FC00FF00
FC01FF80
FC03FFC0
FFFFFFE0
7FFFFFF0
3FFFE7F0
3FFFC3F0
0FFF81F0
03FF00E0
ENDCHAR
STARTCHAR R
ENCODING 82
SWIDTH 571 0
DWIDTH 34 0
BBX 28 40 3 0
BITMAP
7FFFFE00
FFFFFF80
FFFFFFC0
FFFFFFE0
FFFFFFE0
FFFFFFF0
FC0003F0
FC0003F0
FC0001F0
FC0001F0
FC0001F0
FC0001F0
FC0001F0
FC0001F0
FC0001F0
FC0003F0
FC0003F0
FFFFFFF0
FFFFFFE0
FFFFFFE0
FFFFFFC0
FFFFFFE0
FFFFFFF0
FC0003F0
FC0003F0
FC0001F0
FC0001F0
FC0001F0
FC0001F0
FC0001F0
FC0001F0
FC0001F0
FC0001F0
FC0001F0
FC0001F0
FC0001F0
FC0001F0
FC0001F0
F80001F0
700000E0
ENDCHAR
STARTCHAR S
ENCODING 83
SWIDTH 571 0
DWIDTH 34 0
BBX 28 40 3 0
BITMAP
07FFFE00
1FFFFF80
3FFFFFC0
7FFFFFE0
7FFFFFE0
FFFFFFF0
FE0003F0
FC0003F0
FC0001F0
FC0001F0
FC0001F0
FC000000
FC000000
FC000000
FC000000
FC000000
FE000000
FFFFFC00
7FFFFF00
7FFFFFC0
3FFFFFE0
1FFFFFE0
03FFFFF0
000003F0
000003F0
000001F0
000001F0
000001F0
000001F0
780001F0
F80001F0
FC0001F0
FC0003F0
FC0003F0
FFFFFFF0
7FFFFFF0
3FFFFFE0
3FFFFFC0
0FFFFF80
03FFFE00
ENDCHAR
STARTCHAR T
ENCODING 84
SWIDTH 571 0
DWIDTH 34 0
BBX 28 40 3 0
BITMAP
7FFFFFE0
FFFFFFF0
FFFFFFF0
FFFFFFF0
FFFFFFF0
3FFFFFE0
001F8000
001F8000
001F8000
001F8000
001F8000
001F8000
001F8000
001F8000
001F8000
001F8000
001F8000
001F8000
001F8000
001F8000
001F8000
001F8000
001F8000
001F8000
001F8000
001F8000
001F8000
001F8000
001F8000
001F8000
001F8000
001F8000
001F8000
001F8000
001F8000
001F8000
001F8000
001F8000
000F8000
00070000
ENDCHAR
STARTCHAR U
ENCODING 85
SWIDTH 571 0
DWIDTH 34 0
BBX 28 40 3 0
BITMAP
700000E0
F80001F0
FC0001F0
FC0001F0
FC0001F0
FC0001F0
FC0001F0
FC0001F0
FC0001F0
FC0001F0
FC0001F0
FC0001F0
FC0001F0
FC0001F0
FC0001F0
FC0001F0
FC0001F0
FC0001F0
FC0001F0
FC0001F0
FC0001F0
FC0001F0
FC0001F0
FC0001F0
FC0001F0
FC0001F0
FC0001F0
FC0001F0
FC0001F0
FC0001F0
FC0001F0
FC0001F0
FC0003F0
FC0003F0
FFFFFFF0
7FFFFFE0
3FFFFFE0
3FFFFFC0
0FFFFF80
03FFFE00
ENDCHAR
STARTCHAR V
ENCODING 86
SWIDTH 571 0
DWIDTH 34 0
BBX 28 40 3 0
BITMAP
700000E0
F80001F0
FC0001F0
FC0001F0
FC0001F0
FC0001F0
FC0001F0
FC0001F0
FC0001F0
FC0001F0
FC0001F0
FC0001F0
FC0001F0
FC0001F0
FC0001F0
FC0001F0
FC0001F0
FC0001F0
FC0001F0
FC0001F0
FC0001F0
FC0001F0
FC0001F0
FC0003F0
FE0007F0
FF000FF0
FF801FF0
7FC03FF0
7FE07FE0
3FF0FFC0
1FF9FF80
0FFFFF00
07FFFE00
03FFFC00
01FFF800
00FFF000
007FE000
003FC000
001F8000
00070000
ENDCHAR
STARTCHAR W
ENCODING 87
SWIDTH 571 0
DWIDTH 34 0
BBX 28 40 3 0
BITMAP
700000E0
F80001F0
FC0001F0
FC0001F0
FC0001F0
FC0001F0
FC0001F0
FC0001F0
FC0001F0
FC0001F0
FC0001F0
FC0001F0
FC0001F0
FC0001F0
FC0001F0
FC0001F0
FC0001F0
FC0601F0
FC0F81F0
FC1F81F0
FC1F81F0
FC1F81F0
FC1F81F0
FC1F81F0
FC1F81F0
FC1F81F0
FC1F81F0
FC1F81F0
FC1F81F0
FC1F81F0
FC1F81F0
FC1F81F0
FC1F83F0
FC3FC3F0
FFFFFFF0
7FFFFFE0
3FFFFFE0
3FFFFFC0
0FF9FF80
03E07E00
ENDCHAR
STARTCHAR X
ENCODING 88
SWIDTH 571 0
DWIDTH 34 0
BBX 28 40 3 0
BITMAP
700000E0
F80001F0
FC0001F0
FC0001F0
FC0001F0
FC0001F0
FC0001F0
FC0001F0
FE0003F0
FF0007F0
7F800FF0
3FC01FE0
1FE03FC0
0FF07F80
07F8FF00
03FDFE00
01FFFC00
00FFF800
007FF000
003FE000
003FE000
007FF000
00FFF800
01FFFC00
03FDFE00
07F8FF00
0FF07F80
1FE03FC0
3FC01FE0
7F800FF0
FF0007F0
FE0003F0
FC0001F0
FC0001F0
FC0001F0
FC0001F0
FC0001F0
FC0001F0
F80001F0
700000E0
ENDCHAR
STARTCHAR Y
ENCODING 89
SWIDTH 571 0
DWIDTH 34 0
BBX 28 40 3 0
BITMAP
700000E0
F80001F0
FC0001F0
FC0001F0
FC0001F0
FC0001F0
FC0001F0
FC0001F0
FE0003F0
FF0007F0
7F800FF0
3FC01FE0
1FE03FC0
0FF07F80
07F8FF00
03FDFE00
01FFFC00
00FFF800
007FF000
003FE000
001FC000
001F8000
001F8000
001F8000
001F8000
001F8000
001F8000
001F8000
001F8000
001F8000
001F8000
001F8000
001F8000
001F8000
001F8000
001F8000
001F8000
001F8000
000F8000
00070000
ENDCHAR
STARTCHAR Z
ENCODING 90
SWIDTH 571 0
DWIDTH 34 0
BBX 28 40 3 0
BITMAP
7FFFFFE0
FFFFFFF0
FFFFFFF0
FFFFFFF0
FFFFFFF0
3FFFFFF0
000001F0
000001F0
000003F0
000007F0
00000FF0
00001FE0
00003FC0
00007F80
0000FF00
0001FE00
0003FC00
0007F800
000FF000
001FE000
003FC000
007F8000
00FF0000
01FE0000
03FC0000
07F80000
0FF00000
1FE00000
3FC00000
7F800000
FF000000
FE000000
FC000000
FC000000
FFFFFFE0
FFFFFFF0
FFFFFFF0
FFFFFFF0
FFFFFFF0
7FFFFFE0
ENDCHAR
STARTCHAR bracketleft
ENCODING 91
SWIDTH 571 0
DWIDTH 34 0
BBX 12 40 14 0
BITMAP
3FC0
7FE0
FFF0
FFF0
FFE0
FFC0
FC00
FC00
FC00
FC00
FC00
FC00
FC00
FC00
FC00
FC00
FC00
FC00
FC00
FC00
FC00
FC00
FC00
FC00
FC00
FC00
FC00
FC00
FC00
FC00
FC00
FC00
FC00
FC00
FFC0
FFE0
FFF0
FFF0
7FE0
3FC0
ENDCHAR
STARTCHAR backslash
ENCODING 92
SWIDTH 571 0
DWIDTH 34 0
BBX 28 40 3 0
BITMAP
70000000
F8000000
FC000000
FC000000
FC000000
FC000000
FC000000
FC000000
FE000000
FF000000
7F800000
3FC00000
1FE00000
0FF00000
07F80000
03FC0000
01FE0000
00FF0000
007F8000
003FC000
001FE000
000FF000
0007F800
0003FC00
0001FE00
0000FF00
00007F80
00003FC0
00001FE0
00000FF0
000007F0
000003F0
000001F0
000001F0
000001F0
000001F0
000001F0
000001F0
000001F0
000000E0
ENDCHAR
STARTCHAR bracketright
ENCODING 93
SWIDTH 571 0
DWIDTH 34 0
BBX 11 40 9 0
BITMAP
7FC0
FFE0
FFE0
FFE0
FFE0
7FE0
07E0
07E0
07E0
07E0
07E0
07E0
07E0
07E0
07E0
07E0
07E0
07E0
07E0
07E0
07E0
07E0
07E0
07E0
07E0
07E0
07E0
07E0
07E0
07E0
07E0
07E0
07E0
07E0
7FE0
FFE0
FFE0
FFE0
FFE0
7FC0
ENDCHAR
STARTCHAR asciicircum
ENCODING 94
SWIDTH 571 0
DWIDTH 34 0
BBX 28 17 3 23
BITMAP
00070000
001F8000
003FC000
007FE000
00FFF000
01FFF800
03FFFC00
07F9FE00
0FF0FF00
1FE07F80
3FC03FC0
7F801FE0
7F000FF0
FE0007F0
FE0003F0
FC0001F0
700000E0
ENDCHAR
STARTCHAR underscore
ENCODING 95
SWIDTH 571 0
DWIDTH 34 0
BBX 28 6 3 -6
BITMAP
7FFFFFE0
FFFFFFF0
FFFFFFF0
FFFFFFF0
FFFFFFF0
3FFFFFE0
ENDCHAR
STARTCHAR grave
ENCODING 96
SWIDTH 571 0
DWIDTH 34 0
BBX 12 11 14 29
BITMAP
3800
7C00
FE00
FF00
7F80
3FC0
1FE0
0FF0
07F0
03F0
01E0
ENDCHAR
STARTCHAR a
ENCODING 97
SWIDTH 571 0
DWIDTH 34 0
BBX 28 29 3 0
BITMAP
00FFF800
03FFFF00
03FFFF80
03FFFFC0
03FFFFE0
01FFFFF0
000007F0
000003F0
000001F0
000001F0
000001F0
000001F0
07FFFFF0
1FFFFFF0
3FFFFFF0
7FFFFFF0
7FFFFFF0
FFFFFFF0
FC0001F0
FC0001F0
FC0001F0
FC0001F0
FC0001F0
FFFFFFF0
7FFFFFF0
3FFFFFF0
3FFFFFF0
0FFFFFF0
03FFFFE0
ENDCHAR
STARTCHAR b
ENCODING 98
SWIDTH 571 0
DWIDTH 34 0
BBX 28 40 3 0
BITMAP
70000000
F8000000
FC000000
FC000000
FC000000
FC000000
FC000000
FC000000
FC000000
FC000000
FC000000
FFFFF800
FFFFFF00
FFFFFF80
FFFFFFC0
FFFFFFE0
FFFFFFF0
FC0007F0
FC0003F0
FC0001F0
FC0001F0
FC0001F0
FC0001F0
FC0001F0
FC0001F0
FC0001F0
FC0001F0
FC0001F0
FC0001F0
FC0001F0
FC0001F0
FC0001F0
FC0003F0
FC0003F0
FFFFFFF0
FFFFFFE0
FFFFFFE0
FFFFFFC0
FFFFFF80
7FFFFE00
ENDCHAR
STARTCHAR c
ENCODING 99
SWIDTH 571 0
DWIDTH 34 0
BBX 28 29 3 0
BITMAP
00FFF800
0FFFFF00
1FFFFF80
3FFFFFC0
7FFFFFE0
7FFFFFF0
FE0007F0
FC0003F0
FC0001F0
FC0001F0
FC0001F0
FC0000E0
FC000000
FC000000
FC000000
FC000000
FC000000
FC000000
FC0001F0
FC0001F0
FC0001F0
FC0003F0
FC0003F0
FFFFFFF0
7FFFFFE0
3FFFFFE0
3FFFFFC0
0FFFFF80
03FFFE00
ENDCHAR
STARTCHAR d
ENCODING 100
SWIDTH 571 0
DWIDTH 34 0
BBX 28 40 3 0
BITMAP
000000E0
000001F0
000001F0
000001F0
000001F0
000001F0
000001F0
000001F0
000001F0
000001F0
000001F0
00FFFFF0
0FFFFFF0
1FFFFFF0
3FFFFFF0
7FFFFFF0
7FFFFFF0
FE0001F0
FC0001F0
FC0001F0
FC0001F0
FC0001F0
FC0001F0
FC0001F0
FC0001F0
FC0001F0
FC0001F0
FC0001F0
FC0001F0
FC0001F0
FC0001F0
FC0001F0
FC0001F0
FC0001F0
FFFFFFF0
7FFFFFF0
3FFFFFF0
3FFFFFF0
0FFFFFF0
03FFFFE0
ENDCHAR
STARTCHAR e
ENCODING 101
SWIDTH 571 0
DWIDTH 34 0
BBX 28 29 3 0
BITMAP
00FFF800
0FFFFF00
1FFFFF80
3FFFFFC0
7FFFFFE0
7FFFFFF0
FE0007F0
FC0003F0
FC0001F0
FC0001F0
FC0001F0
FC0001F0
FFFFFFF0
FFFFFFF0
FFFFFFF0
FFFFFFF0
FFFFFFF0
FFFFFFC0
FC000000
FC000000
FC000000
FC000000
FC000000
FFFFF800
7FFFFC00
3FFFFE00
3FFFFE00
0FFFFC00
03FFF800
ENDCHAR
STARTCHAR f
ENCODING 102
SWIDTH 571 0
DWIDTH 34 0
BBX 22 40 9 0
BITMAP
001FF8
007FFC
00FFFC
01FFFC
03FFFC
03FFF8
03F000
07E000
07E000
07E000
07E000
3FFC00
FFFF00
FFFF80
FFFF80
FFFF00
7FFF00
07E000
07E000
07E000
07E000
07E000
07E000
07E000
07E000
07E000
07E000
07E000
07E000
07E000
07E000
07E000
07E000
07E000
07E000
07E000
07E000
07E000
03E000
01C000
ENDCHAR
STARTCHAR g
ENCODING 103
SWIDTH 571 0
DWIDTH 34 0
BBX 28 35 3 -6
BITMAP
00FFFFC0
0FFFFFF0
1FFFFFF0
3FFFFFF0
7FFFFFF0
7FFFFFF0
FE0001F0
FC0001F0
FC0001F0
FC0001F0
FC0001F0
FC0001F0
FC0001F0
FC0001F0
FC0001F0
FC0001F0
FC0001F0
FF0001F0
7FFFFFF0
7FFFFFF0
3FFFFFF0
1FFFFFF0
07FFFFF0
000001F0
000001F0
000001F0
000001F0
000003F0
000007F0
01FFFFF0
03FFFFE0
03FFFFC0
03FFFF80
03FFFF00
01FFFC00
ENDCHAR
STARTCHAR h
ENCODING 104
SWIDTH 571 0
DWIDTH 34 0
BBX 28 40 3 0
BITMAP
70000000
F8000000
FC000000
FC000000
FC000000
FC000000
FC000000
FC000000
FC000000
FC000000
FC000000
FFFFF800
FFFFFF00
FFFFFF80
FFFFFFC0
FFFFFFE0
FFFFFFF0
FC0007F0
FC0003F0
FC0001F0
FC0001F0
FC0001F0
FC0001F0
FC0001F0
FC0001F0
FC0001F0
FC0001F0
FC0001F0
FC0001F0
FC0001F0
FC0001F0
FC0001F0
FC0001F0
FC0001F0
FC0001F0
FC0001F0
FC0001F0
FC0001F0
F80001F0
700000E0
ENDCHAR
STARTCHAR i
ENCODING 105
SWIDTH 571 0
DWIDTH 34 0
BBX 17 40 9 0
BITMAP
01C000
03E000
07E000
07E000
03C000
018000
000000
000000
000000
000000
000000
3F8000
FFC000
FFE000
FFE000
FFE000
7FE000
07E000
07E000
07E000
07E000
07E000
07E000
07E000
07E000
07E000
07E000
07E000
07E000
07E000
07E000
07E000
07E000
07E000
7FFE00
FFFF00
FFFF80
FFFF80
FFFF00
7FFE00
ENDCHAR
STARTCHAR j
ENCODING 106
SWIDTH 571 0
DWIDTH 34 0
BBX 23 46 3 -6
BITMAP
000038
00007C
00007E
00007E
00003C
000018
000000
000000
000000
000000
000000
0003F0
000FFC
001FFE
001FFE
000FFE
000FFE
00007E
00007E
00007E
00007E
00007E
00007E
00007E
00007E
00007E
00007E
00007E
00007E
00007E
00007E
00007E
00007E
00007E
30007E
F8007E
F8007E
FC007E
FC007E
FE00FC
7FFFFC
7FFFF8
3FFFF8
1FFFF0
0FFFC0
01FF00
ENDCHAR
STARTCHAR k
ENCODING 107
SWIDTH 571 0
DWIDTH 34 0
BBX 22 40 9 0
BITMAP
700000
F80000
F80000
F80000
F80000
F80000
F80000
F80000
F80000
F80000
F80000
F80010
F8007C
F800FC
F801FC
F803FC
F807F8
F80FF0
F81FE0
F83FC0
F87F80
F8FF00
F9FE00
FBFC00
FFF800
FFF000
FFF800
FFFC00
FFFE00
FFFF00
FE7F80
FC3FC0
F81FE0
F80FF0
F807F8
F803FC
F801FC
F800FC
F8007C
700038
ENDCHAR
STARTCHAR l
ENCODING 108
SWIDTH 571 0
DWIDTH 34 0
BBX 17 40 9 0
BITMAP
7FC000
FFE000
FFE000
FFE000
FFE000
7FE000
07E000
07E000
07E000
07E000
07E000
07E000
07E000
07E000
07E000
07E000
07E000
07E000
07E000
07E000
07E000
07E000
07E000
07E000
07E000
07E000
07E000
07E000
07E000
07E000
07E000
07E000
07E000
07E000
7FFE00
FFFF00
FFFF80
FFFF80
FFFF00
7FFE00
ENDCHAR
STARTCHAR m
ENCODING 109
SWIDTH 571 0
DWIDTH 34 0
BBX 28 29 3 0
BITMAP
3F801800
7FF8FF00
FFFDFF80
FFFFFFC0
FFFFFFE0
FFFFFFF0
FC3FE7F0
FC1F83F0
FC1F81F0
FC1F81F0
FC1F81F0
FC1F81F0
FC1F81F0
FC1F81F0
FC1F81F0
FC1F81F0
FC1F81F0
FC1F81F0
FC1F81F0
FC1F81F0
FC1F81F0
FC1F81F0
FC1F81F0
FC1F81F0
FC1F81F0
FC1F81F0
FC1F81F0
F80F81F0
700700E0
ENDCHAR
STARTCHAR n
ENCODING 110
SWIDTH 571 0
DWIDTH 34 0
BBX 28 29 3 0
BITMAP
3FFFF800
7FFFFF00
FFFFFF80
FFFFFFC0
FFFFFFE0
FFFFFFF0
FC0007F0
FC0003F0
FC0001F0
FC0001F0
FC0001F0
FC0001F0
FC0001F0
FC0001F0
FC0001F0
FC0001F0
FC0001F0
FC0001F0
FC0001F0
FC0001F0
FC0001F0
FC0001F0
FC0001F0
FC0001F0
FC0001F0
FC0001F0
FC0001F0
F80001F0
700000E0
ENDCHAR
STARTCHAR o
ENCODING 111
SWIDTH 571 0
DWIDTH 34 0
BBX 28 29 3 0
BITMAP
00FFF800
0FFFFF00
1FFFFF80
3FFFFFC0
7FFFFFE0
7FFFFFF0
FE0007F0
FC0003F0
FC0001F0
FC0001F0
FC0001F0
FC0001F0
FC0001F0
FC0001F0
FC0001F0
FC0001F0
FC0001F0
FC0001F0
FC0001F0
FC0001F0
FC0001F0
FC0003F0
FC0003F0
FFFFFFF0
7FFFFFE0
3FFFFFE0
3FFFFFC0
0FFFFF80
03FFFE00
ENDCHAR
STARTCHAR p
ENCODING 112
SWIDTH 571 0
DWIDTH 34 0
BBX 28 35 3 -6
BITMAP
3FFFF800
7FFFFF00
FFFFFF80
FFFFFFC0
FFFFFFE0
FFFFFFF0
FC0007F0
FC0003F0
FC0001F0
FC0001F0
FC0001F0
FC0001F0
FC0001F0
FC0001F0
FC0001F0
FC0001F0
FC0003F0
FC000FF0
FFFFFFE0
FFFFFFE0
FFFFFFC0
FFFFFF80
FFFFFE00
FC000000
FC000000
FC000000
FC000000
FC000000
FC000000
FC000000
FC000000
FC000000
FC000000
F8000000
30000000
ENDCHAR
STARTCHAR q
ENCODING 113
SWIDTH 571 0
DWIDTH 34 0
BBX 28 35 3 -6
BITMAP
00FFFFC0
0FFFFFF0
1FFFFFF0
3FFFFFF0
7FFFFFF0
7FFFFFF0
FE0001F0
FC0001F0
FC0001F0
FC0001F0
FC0001F0
FC0001F0
FC0001F0
FC0001F0
FC0001F0
FC0001F0
FC0001F0
FF0001F0
7FFFFFF0
7FFFFFF0
3FFFFFF0
1FFFFFF0
07FFFFF0
000001F0
000001F0
000001F0
000001F0
000001F0
000001F0
000001F0
000001F0
000001F0
000001F0
000001F0
000000E0
ENDCHAR
STARTCHAR r
ENCODING 114
SWIDTH 571 0
DWIDTH 34 0
BBX 22 29 9 0
BITMAP
3FFE00
FFFFC0
FFFFE0
FFFFF0
FFFFF8
FFFFFC
F801FC
F800FC
F8007C
F8007C
F8007C
F80038
F80000
F80000
F80000
F80000
F80000
F80000
F80000
F80000
F80000
F80000
F80000
F80000
F80000
F80000
F80000
F80000
700000
ENDCHAR
STARTCHAR s
ENCODING 115
SWIDTH 571 0
DWIDTH 34 0
BBX 28 29 3 0
BITMAP
00FFFFC0
0FFFFFF0
1FFFFFF0
3FFFFFF0
7FFFFFF0
7FFFFFE0
FE000000
FC000000
FC000000
FC000000
FC000000
FE000000
7FFFFE00
7FFFFF80
3FFFFFC0
1FFFFFE0
0FFFFFE0
00FFFFF0
000003F0
000001F0
000001F0
000003F0
000003F0
3FFFFFF0
FFFFFFE0
FFFFFFE0
FFFFFFC0
FFFFFF80
7FFFFE00
ENDCHAR
STARTCHAR t
ENCODING 116
SWIDTH 571 0
DWIDTH 34 0
BBX 22 40 9 0
BITMAP
01C000
03E000
07E000
07E000
07E000
07E000
07E000
07E000
07E000
07E000
07E000
3FFFF0
FFFFFC
FFFFFC
FFFFFC
FFFFFC
7FFFF8
07E000
07E000
07E000
07E000
07E000
07E000
07E000
07E000
07E000
07E000
07E000
07E000
07E000
07E000
07E000
07E000
03F000
03FFF8
03FFFC
01FFFC
00FFFC
007FFC
001FF8
ENDCHAR
STARTCHAR u
ENCODING 117
SWIDTH 571 0
DWIDTH 34 0
BBX 28 29 3 0
BITMAP
20000040
780001F0
F80001F0
FC0001F0
FC0001F0
FC0001F0
FC0001F0
FC0001F0
FC0001F0
FC0001F0
FC0001F0
FC0001F0
FC0001F0
FC0001F0
FC0001F0
FC0001F0
FC0001F0
FC0001F0
FC0001F0
FC0001F0
FC0001F0
FC0001F0
FC0001F0
FFFFFFF0
7FFFFFF0
3FFFFFF0
3FFFFFF0
0FFFFFF0
03FFFFE0
ENDCHAR
STARTCHAR v
ENCODING 118
SWIDTH 571 0
DWIDTH 34 0
BBX 28 29 3 0
BITMAP
20000040
780001F0
F80001F0
FC0001F0
FC0001F0
FC0001F0
FC0001F0
FC0001F0
FC0001F0
FC0001F0
FC0001F0
FC0001F0
FC0003F0
FE0007F0
FF000FF0
FF801FF0
7FC03FF0
7FE07FE0
3FF0FFC0
1FF9FF80
0FFFFF00
07FFFE00
03FFFC00
01FFF800
00FFF000
007FE000
003FC000
001F8000
00070000
ENDCHAR
STARTCHAR w
ENCODING 119
SWIDTH 571 0
DWIDTH 34 0
BBX 28 29 3 0
BITMAP
20000040
780001F0
F80001F0
FC0001F0
FC0001F0
FC0001F0
FC0601F0
FC0F81F0
FC1F81F0
FC1F81F0
FC1F81F0
FC1F81F0
FC1F81F0
FC1F81F0
FC1F81F0
FC1F81F0
FC1F81F0
FC1F81F0
FC1F81F0
FC1F81F0
FC1F81F0
FC1F83F0
FC3FC3F0
FFFFFFF0
7FFFFFE0
3FFFFFE0
3FFFFFC0
0FF9FF80
03E07E00
ENDCHAR
STARTCHAR x
ENCODING 120
SWIDTH 571 0
DWIDTH 34 0
BBX 28 29 3 0
BITMAP
20000040
780001F0
FC0003F0
FE0007F0
FF000FF0
7F801FE0
3FC03FC0
1FE07F80
0FF0FF00
07F9FE00
03FFFC00
01FFF800
00FFF000
007FE000
003FC000
007FE000
00FFF000
01FFF800
03FFFC00
07F9FE00
0FF0FF00
1FE07F80
3FC03FC0
7F801FE0
FF000FF0
FE0007F0
FC0003F0
F80001F0
700000E0
ENDCHAR
STARTCHAR y
ENCODING 121
SWIDTH 571 0
DWIDTH 34 0
BBX 28 35 3 -6
BITMAP
20000040
780001F0
F80001F0
FC0001F0
FC0001F0
FC0001F0
FC0001F0
FC0001F0
FC0001F0
FC0001F0
FC0001F0
FC0001F0
FC0001F0
FC0001F0
FC0001F0
FC0001F0
FC0001F0
FF0001F0
7FFFFFF0
7FFFFFF0
3FFFFFF0
1FFFFFF0
07FFFFF0
000001F0
000001F0
000001F0
000001F0
000003F0
000007F0
01FFFFF0
03FFFFE0
03FFFFC0
03FFFF80
03FFFF00
01FFFC00
ENDCHAR
STARTCHAR z
ENCODING 122
SWIDTH 571 0
DWIDTH 34 0
BBX 28 29 3 0
BITMAP
3FFFFFC0
7FFFFFF0
FFFFFFF0
FFFFFFF0
FFFFFFF0
7FFFFFE0
00003FC0
00007F80
0000FF00
0001FE00
0003FC00
0007F800
000FF000
001FE000
003FC000
007F8000
00FF0000
01FE0000
03FC0000
07F80000
0FF00000
1FE00000
3FC00000
7FFFFFE0
FFFFFFF0
FFFFFFF0
FFFFFFF0
FFFFFFF0
7FFFFFE0
ENDCHAR
STARTCHAR braceleft
ENCODING 123
SWIDTH 571 0
DWIDTH 34 0
BBX 17 40 9 0
BITMAP
001E00
007F00
00FF80
01FF80
03FF00
03FE00
03F000
07E000
07E000
07E000
07E000
07E000
07E000
07E000
07E000
07E000
0FE000
7FC000
FFC000
FF8000
FF8000
FFC000
7FC000
0FE000
07E000
07E000
07E000
07E000
07E000
07E000
07E000
07E000
07E000
03F000
03FE00
03FF00
01FF80
00FF80
007F00
001E00
ENDCHAR
STARTCHAR bar
ENCODING 124
SWIDTH 571 0
DWIDTH 34 0
BBX 6 40 14 0
BITMAP
38
7C
FC
FC
FC
FC
FC
FC
FC
FC
FC
FC
FC
FC
FC
FC
FC
FC
FC
FC
FC
FC
FC
FC
FC
FC
FC
FC
FC
FC
FC
FC
FC
FC
FC
FC
FC
FC
7C
38
ENDCHAR
STARTCHAR braceright
ENCODING 125
SWIDTH 571 0
DWIDTH 34 0
BBX 17 40 9 0
BITMAP
780000
FE0000
FF0000
FF8000
FFC000
7FC000
0FE000
07E000
07E000
07E000
07E000
07E000
07E000
07E000
07E000
07E000
03F000
03FE00
03FF00
01FF80
00FF80
01FF00
03FE00
03F000
07E000
07E000
07E000
07E000
07E000
07E000
07E000
07E000
07E000
0FE000
7FC000
FFC000
FF8000
FF0000
FE0000
780000
ENDCHAR
STARTCHAR asciitilde
ENCODING 126
SWIDTH 571 0
DWIDTH 34 0
BBX 28 17 3 23
BITMAP
03E00000
0FF80000
1FFC0000
3FFE0000
7FFF0000
FFFF0000
FE3F80E0
FC1F81F0
FC1F81F0
F81F81F0
781FC3F0
000FFFF0
000FFFE0
0007FFE0
0003FFC0
0001FF80
00007E00
ENDCHAR
STARTCHAR uni007F
ENCODING 127
SWIDTH 571 0
DWIDTH 34 0
BBX 28 40 3 0
BITMAP
7FFFFFE0
FFFFFFF0
FFFFFFF0
FFFFFFF0
FFFFFFF0
FFFFFFF0
FFFFFFF0
FFFFFFF0
FFFFFFF0
FFFFFFF0
FFFFFFF0
FFFFFFF0
FFFFFFF0
FFFFFFF0
FFFFFFF0
FFFFFFF0
FFFFFFF0
FFFFFFF0
FFFFFFF0
FFFFFFF0
FFFFFFF0
FFFFFFF0
FFFFFFF0
FFFFFFF0
FFFFFFF0
FFFFFFF0
FFFFFFF0
FFFFFFF0
FFFFFFF0
FFFFFFF0
FFFFFFF0
FFFFFFF0
FFFFFFF0
FFFFFFF0
FFFFFFF0
FFFFFFF0
FFFFFFF0
FFFFFFF0
FFFFFFF0
7FFFFFE0
ENDCHAR
STARTCHAR .notdef
ENCODING -1
SWIDTH 571 0
DWIDTH 34 0
BBX 1 1 0 0
BITMAP
00
ENDCHAR
STARTCHAR glyph1
ENCODING -1
SWIDTH 0 0
DWIDTH 0 0
BBX 1 1 0 0
BITMAP
00
ENDCHAR
STARTCHAR glyph12
ENCODING -1
SWIDTH 571 0
DWIDTH 34 0
BBX 28 40 3 0
BITMAP
71C738E0
FBEFFDF0
FFFFFFF0
FFFFFFF0
FBEF3DF0
31C618E0
79CF3CE0
FBFFFFF0
FFFFFFF0
FBFFFFF0
7BCF3DF0
20821040
7BEF3DF0
FBFFFFF0
FFFFFFF0
FBEFFDF0
71CF3CE0
71C618E0
FBEFFDF0
FFFFFFF0
FFFFFFF0
FBEFFDF0
71C638E0
71CF3CE0
FBEFFDF0
FFFFFFF0
FBFFFFF0
7BEF3DF0
20821040
7BCF3DF0
FBFFFFF0
FFFFFFF0
FBFFFFF0
7BCF3CE0
31C618E0
FBEF3DF0
FBFFFFF0
FFFFFFF0
FBEFFDF0
71C738E0
ENDCHAR
STARTCHAR glyph48
ENCODING -1
SWIDTH 571 0
DWIDTH 34 0
BBX 28 40 3 0
BITMAP
71C038E0
FBE07DF0
FFE07FF0
FFE07FF0
FBE03DF0
31C018E0
780000E0
F80001F0
FC0001F0
F80001F0
780001F0
00020040
000F01F0
001F81F0
001F81F0
000F81F0
000F00E0
000018E0
00007DF0
00007FF0
00007FF0
00007DF0
000038E0
000000E0
000001F0
000001F0
000001F0
000001F0
00000040
780F01F0
F81F81F0
FC1F81F0
F81F81F0
780F00E0
31C618E0
FBEF3DF0
FBFFFFF0
FFFFFFF0
FBEFFDF0
71C738E0
ENDCHAR
STARTCHAR glyph74
ENCODING -1
SWIDTH 571 0
DWIDTH 34 0
BBX 28 46 3 -6
BITMAP
70070000
F80F8000
FC1F8000
FC1F8000
F80F0000
30060000
00000000
00000000
00000000
00000000
00000000
20801040
7BE03DF0
FBE07FF0
FFE07FF0
FBE07DF0
71C03CE0
700000E0
F80001F0
FC0001F0
FC0001F0
F80001F0
700000E0
01C00000
03E00000
03E00000
03E00000
03E00000
00800000
780001F0
F80001F0
FC0001F0
F80001F0
780000E0
31C618E0
FBEF3DF0
FBFFFFF0
FFFFFFF0
FBEFFDF0
71C738E0
01C03800
03E07C00
03E07E00
03E07E00
03E03C00
01C01800
ENDCHAR
ENDFONT
